<svg width="24" height="24" viewBox="0 0 24 24" fill="none" xmlns="http://www.w3.org/2000/svg">
<path fill-rule="evenodd" clip-rule="evenodd" d="M4.29383 4.19364C2.97518 3.62823 1.50772 4.59419 1.50567 6.02894L1.50125 9.12322C1.50054 9.62497 1.87174 10.0496 2.36909 10.1159L12.7829 11.5044C13.3615 11.5815 13.3615 12.4185 12.7829 12.4956L2.36909 13.8841C1.87174 13.9504 1.50054 14.375 1.50125 14.8768L1.50567 17.9711C1.50772 19.4058 2.97518 20.3718 4.29382 19.8064L18.213 13.8382C19.8288 13.1453 19.8288 10.8547 18.213 10.1618L4.29383 4.19364ZM10.9925 9.24635L10.9906 9.23739L11.02 9.25L10.9925 9.24635ZM10.9916 14.7579L11.01 14.75L10.9928 14.7523L10.9916 14.7579Z" fill="#38bdf8"/>
</svg>
